<?xml version="1.0" encoding="UTF-8" standalone="no"?><!-- Generator: Gravit.io --><svg xmlns="http://www.w3.org/2000/svg" xmlns:xlink="http://www.w3.org/1999/xlink" style="isolation:isolate" viewBox="0 0 500 500" width="500pt" height="500pt"><defs><clipPath id="_clipPath_zxs5F7UWMcUHwplsewepOox08zDn3r3Q"><rect width="500" height="500"/></clipPath></defs><g clip-path="url(#_clipPath_zxs5F7UWMcUHwplsewepOox08zDn3r3Q)"><rect width="500" height="500" style="fill:rgb(217,87,99)"/><g><path d=" M 152.7 69.3 L 152.7 83.2 L 97.1 83.2 L 97.1 69.3 L 152.7 69.3 Z  M 402.9 69.3 L 402.9 83.2 L 347.3 83.2 L 347.3 69.3 L 402.9 69.3 Z  M 97.1 83.2 L 97.1 97.1 L 83.2 97.1 L 83.2 83.2 L 97.1 83.2 Z  M 166.6 83.2 L 166.6 97.1 L 152.7 97.1 L 152.7 83.2 L 166.6 83.2 Z  M 347.3 83.2 L 347.3 97.1 L 333.4 97.1 L 333.4 83.2 L 347.3 83.2 Z  M 416.8 83.2 L 416.8 97.1 L 402.9 97.1 L 402.9 83.2 L 416.8 83.2 Z  M 83.2 97.1 L 83.2 111 L 69.3 111 L 69.3 97.1 L 83.2 97.1 Z  M 180.5 97.1 L 180.5 111 L 166.6 111 L 166.6 97.1 L 180.5 97.1 Z  M 333.4 97.1 L 333.4 111 L 319.5 111 L 319.5 97.1 L 333.4 97.1 Z  M 430.7 97.1 L 430.7 111 L 416.8 111 L 416.8 97.1 L 430.7 97.1 Z  M 83.2 111 L 83.2 124.9 L 69.3 124.9 L 69.3 111 L 83.2 111 Z  M 194.4 111 L 194.4 124.9 L 180.5 124.9 L 180.5 111 L 194.4 111 Z  M 319.5 111 L 319.5 124.9 L 305.6 124.9 L 305.6 111 L 319.5 111 Z  M 430.7 111 L 430.7 124.9 L 416.8 124.9 L 416.8 111 L 430.7 111 Z  M 83.2 124.9 L 83.2 138.8 L 69.3 138.8 L 69.3 124.9 L 83.2 124.9 Z  M 208.3 124.9 L 208.3 138.8 L 194.4 138.8 L 194.4 124.9 L 208.3 124.9 Z  M 305.6 124.9 L 305.6 138.8 L 291.7 138.8 L 291.7 124.9 L 305.6 124.9 Z  M 430.7 124.9 L 430.7 138.8 L 416.8 138.8 L 416.8 124.9 L 430.7 124.9 Z  M 83.2 138.8 L 83.2 152.7 L 69.3 152.7 L 69.3 138.8 L 83.2 138.8 Z  M 208.3 138.8 L 208.3 152.7 L 194.4 152.7 L 194.4 138.8 L 208.3 138.8 Z  M 305.6 138.8 L 305.6 152.7 L 291.7 152.7 L 291.7 138.8 L 305.6 138.8 Z  M 430.7 138.8 L 430.7 152.7 L 416.8 152.7 L 416.8 138.8 L 430.7 138.8 Z  M 83.2 152.7 L 83.2 166.6 L 69.3 166.6 L 69.3 152.7 L 83.2 152.7 Z  M 305.6 152.7 L 305.6 166.6 L 194.4 166.6 L 194.4 152.7 L 305.6 152.7 Z  M 430.7 152.7 L 430.7 166.6 L 416.8 166.6 L 416.8 152.7 L 430.7 152.7 Z  M 55.4 166.6 L 55.4 180.5 L 41.5 180.5 L 41.5 166.6 L 55.4 166.6 Z  M 97.1 166.6 L 97.1 180.5 L 83.2 180.5 L 83.2 166.6 L 97.1 166.6 Z  M 416.8 166.6 L 416.8 180.5 L 402.9 180.5 L 402.9 166.6 L 416.8 166.6 Z  M 458.5 166.6 L 458.5 180.5 L 444.6 180.5 L 444.6 166.6 L 458.5 166.6 Z  M 69.3 180.5 L 69.3 194.4 L 55.4 194.4 L 55.4 180.5 L 69.3 180.5 Z  M 97.1 180.5 L 97.1 194.4 L 83.2 194.4 L 83.2 180.5 L 97.1 180.5 Z  M 416.8 180.5 L 416.8 194.4 L 402.9 194.4 L 402.9 180.5 L 416.8 180.5 Z  M 444.6 180.5 L 444.6 194.4 L 430.7 194.4 L 430.7 180.5 L 444.6 180.5 Z  M 83.2 194.4 L 83.2 208.3 L 69.3 208.3 L 69.3 194.4 L 83.2 194.4 Z  M 180.5 194.4 L 180.5 208.3 L 138.8 208.3 L 138.8 194.4 L 180.5 194.4 Z  M 361.2 194.4 L 361.2 208.3 L 319.5 208.3 L 319.5 194.4 L 361.2 194.4 Z  M 430.7 194.4 L 430.7 208.3 L 416.8 208.3 L 416.8 194.4 L 430.7 194.4 Z  M 83.2 208.3 L 83.2 222.2 L 41.5 222.2 L 41.5 208.3 L 83.2 208.3 Z  M 194.4 208.3 L 194.4 222.2 L 180.5 222.2 L 180.5 208.3 L 194.4 208.3 Z  M 319.5 208.3 L 319.5 222.2 L 305.6 222.2 L 305.6 208.3 L 319.5 208.3 Z  M 458.5 208.3 L 458.5 222.2 L 416.8 222.2 L 416.8 208.3 L 458.5 208.3 Z  M 83.2 222.2 L 83.2 236.1 L 69.3 236.1 L 69.3 222.2 L 83.2 222.2 Z  M 208.3 222.2 L 208.3 236.1 L 194.4 236.1 L 194.4 222.2 L 208.3 222.2 Z  M 305.6 222.2 L 305.6 236.1 L 291.7 236.1 L 291.7 222.2 L 305.6 222.2 Z  M 430.7 222.2 L 430.7 236.1 L 416.8 236.1 L 416.8 222.2 L 430.7 222.2 Z  M 69.3 236.1 L 69.3 250 L 55.4 250 L 55.4 236.1 L 69.3 236.1 Z  M 97.1 236.1 L 97.1 250 L 83.2 250 L 83.2 236.1 L 97.1 236.1 Z  M 416.8 236.1 L 416.8 250 L 402.9 250 L 402.9 236.1 L 416.8 236.1 Z  M 444.6 236.1 L 444.6 250 L 430.7 250 L 430.7 236.1 L 444.6 236.1 Z  M 55.4 250 L 55.4 263.9 L 41.5 263.9 L 41.5 250 L 55.4 250 Z  M 111 250 L 111 263.9 L 97.1 263.9 L 97.1 250 L 111 250 Z  M 222.2 250 L 222.2 263.9 L 208.3 263.9 L 208.3 250 L 222.2 250 Z  M 250 250 L 250 263.9 L 236.1 263.9 L 236.1 250 L 250 250 Z  M 291.7 250 L 291.7 263.9 L 277.8 263.9 L 277.8 250 L 291.7 250 Z  M 402.9 250 L 402.9 263.9 L 389 263.9 L 389 250 L 402.9 250 Z  M 430.7 250 L 430.7 263.9 L 416.8 263.9 L 416.8 250 L 430.7 250 Z  M 458.5 250 L 458.5 263.9 L 444.6 263.9 L 444.6 250 L 458.5 250 Z  M 166.6 263.9 L 166.6 277.8 L 111 277.8 L 111 263.9 L 166.6 263.9 Z  M 236.1 263.9 L 236.1 277.8 L 222.2 277.8 L 222.2 263.9 L 236.1 263.9 Z  M 277.8 263.9 L 277.8 277.8 L 263.9 277.8 L 263.9 263.9 L 277.8 263.9 Z  M 402.9 263.9 L 402.9 277.8 L 333.4 277.8 L 333.4 263.9 L 402.9 263.9 Z  M 444.6 263.9 L 444.6 277.8 L 430.7 277.8 L 430.7 263.9 L 444.6 263.9 Z  M 333.4 277.8 L 333.4 291.7 L 166.6 291.7 L 166.6 277.8 L 333.4 277.8 Z  M 361.2 277.8 L 361.2 291.7 L 347.3 291.7 L 347.3 277.8 L 361.2 277.8 Z  M 389 277.8 L 389 291.7 L 375.1 291.7 L 375.1 277.8 L 389 277.8 Z  M 416.8 277.8 L 416.8 291.7 L 402.9 291.7 L 402.9 277.8 L 416.8 277.8 Z  M 444.6 277.8 L 444.6 291.7 L 430.7 291.7 L 430.7 277.8 L 444.6 277.8 Z  M 194.4 291.7 L 194.4 305.6 L 180.5 305.6 L 180.5 291.7 L 194.4 291.7 Z  M 319.5 291.7 L 319.5 305.6 L 305.6 305.6 L 305.6 291.7 L 319.5 291.7 Z  M 347.3 291.7 L 347.3 305.6 L 333.4 305.6 L 333.4 291.7 L 347.3 291.7 Z  M 375.1 291.7 L 375.1 305.6 L 361.2 305.6 L 361.2 291.7 L 375.1 291.7 Z  M 430.7 291.7 L 430.7 305.6 L 416.8 305.6 L 416.8 291.7 L 430.7 291.7 Z  M 194.4 305.6 L 194.4 319.5 L 180.5 319.5 L 180.5 305.6 L 194.4 305.6 Z  M 319.5 305.6 L 319.5 319.5 L 305.6 319.5 L 305.6 305.6 L 319.5 305.6 Z  M 347.3 305.6 L 347.3 319.5 L 333.4 319.5 L 333.4 305.6 L 347.3 305.6 Z  M 375.1 305.6 L 375.1 319.5 L 361.2 319.5 L 361.2 305.6 L 375.1 305.6 Z  M 194.4 319.5 L 194.4 333.4 L 180.5 333.4 L 180.5 319.5 L 194.4 319.5 Z  M 333.4 319.5 L 333.4 333.4 L 305.6 333.4 L 305.6 319.5 L 333.4 319.5 Z  M 375.1 319.5 L 375.1 333.4 L 361.2 333.4 L 361.2 319.5 L 375.1 319.5 Z  M 194.4 333.4 L 194.4 347.3 L 180.5 347.3 L 180.5 333.4 L 194.4 333.4 Z  M 250 333.4 L 250 347.3 L 236.1 347.3 L 236.1 333.4 L 250 333.4 Z  M 277.8 333.4 L 277.8 347.3 L 263.9 347.3 L 263.9 333.4 L 277.8 333.4 Z  M 319.5 333.4 L 319.5 347.3 L 305.6 347.3 L 305.6 333.4 L 319.5 333.4 Z  M 361.2 333.4 L 361.2 347.3 L 347.3 347.3 L 347.3 333.4 L 361.2 333.4 Z  M 194.4 347.3 L 194.4 361.2 L 166.6 361.2 L 166.6 347.3 L 194.4 347.3 Z  M 236.1 347.3 L 236.1 361.2 L 222.2 361.2 L 222.2 347.3 L 236.1 347.3 Z  M 263.9 347.3 L 263.9 361.2 L 250 361.2 L 250 347.3 L 263.9 347.3 Z  M 347.3 347.3 L 347.3 361.2 L 305.6 361.2 L 305.6 347.3 L 347.3 347.3 Z  M 166.6 361.2 L 166.6 375.1 L 152.7 375.1 L 152.7 361.2 L 166.6 361.2 Z  M 194.4 361.2 L 194.4 375.1 L 180.5 375.1 L 180.5 361.2 L 194.4 361.2 Z  M 250 361.2 L 250 375.1 L 222.2 375.1 L 222.2 361.2 L 250 361.2 Z  M 277.8 361.2 L 277.8 375.1 L 263.9 375.1 L 263.9 361.2 L 277.8 361.2 Z  M 319.5 361.2 L 319.5 375.1 L 305.6 375.1 L 305.6 361.2 L 319.5 361.2 Z  M 347.3 361.2 L 347.3 375.1 L 333.4 375.1 L 333.4 361.2 L 347.3 361.2 Z  M 166.6 375.1 L 166.6 389 L 152.7 389 L 152.7 375.1 L 166.6 375.1 Z  M 194.4 375.1 L 194.4 389 L 180.5 389 L 180.5 375.1 L 194.4 375.1 Z  M 236.1 375.1 L 236.1 389 L 222.2 389 L 222.2 375.1 L 236.1 375.1 Z  M 263.9 375.1 L 263.9 389 L 250 389 L 250 375.1 L 263.9 375.1 Z  M 319.5 375.1 L 319.5 389 L 305.6 389 L 305.6 375.1 L 319.5 375.1 Z  M 347.3 375.1 L 347.3 389 L 333.4 389 L 333.4 375.1 L 347.3 375.1 Z  M 166.6 389 L 166.6 402.9 L 152.7 402.9 L 152.7 389 L 166.6 389 Z  M 194.4 389 L 194.4 402.9 L 180.5 402.9 L 180.5 389 L 194.4 389 Z  M 263.9 389 L 263.9 402.9 L 236.1 402.9 L 236.1 389 L 263.9 389 Z  M 319.5 389 L 319.5 402.9 L 305.6 402.9 L 305.6 389 L 319.5 389 Z  M 347.3 389 L 347.3 402.9 L 333.4 402.9 L 333.4 389 L 347.3 389 Z  M 208.3 402.9 L 208.3 416.8 L 152.7 416.8 L 152.7 402.9 L 208.3 402.9 Z  M 263.9 402.9 L 263.9 416.8 L 236.1 416.8 L 236.1 402.9 L 263.9 402.9 Z  M 347.3 402.9 L 347.3 416.8 L 291.7 416.8 L 291.7 402.9 L 347.3 402.9 Z  M 236.1 416.8 L 236.1 430.7 L 208.3 430.7 L 208.3 416.8 L 236.1 416.8 Z  M 291.7 416.8 L 291.7 430.7 L 263.9 430.7 L 263.9 416.8 L 291.7 416.8 Z " fill-rule="evenodd" fill="rgb(69,40,60)"/><path d=" M 152.7 83.2 L 152.7 97.1 L 97.1 97.1 L 97.1 83.2 L 152.7 83.2 Z  M 402.9 83.2 L 402.9 97.1 L 347.3 97.1 L 347.3 83.2 L 402.9 83.2 Z  M 166.6 97.1 L 166.6 111 L 83.2 111 L 83.2 97.1 L 166.6 97.1 Z  M 416.8 97.1 L 416.8 111 L 333.4 111 L 333.4 97.1 L 416.8 97.1 Z  M 111 111 L 111 124.9 L 83.2 124.9 L 83.2 111 L 111 111 Z  M 180.5 111 L 180.5 124.9 L 138.8 124.9 L 138.8 111 L 180.5 111 Z  M 361.2 111 L 361.2 124.9 L 319.5 124.9 L 319.5 111 L 361.2 111 Z  M 416.8 111 L 416.8 124.9 L 389 124.9 L 389 111 L 416.8 111 Z  M 97.1 124.9 L 97.1 138.8 L 83.2 138.8 L 83.2 124.9 L 97.1 124.9 Z  M 124.9 124.9 L 124.9 138.8 L 111 138.8 L 111 124.9 L 124.9 124.9 Z  M 194.4 124.9 L 194.4 138.8 L 152.7 138.8 L 152.7 124.9 L 194.4 124.9 Z  M 347.3 124.9 L 347.3 138.8 L 305.6 138.8 L 305.6 124.9 L 347.3 124.9 Z  M 389 124.9 L 389 138.8 L 375.1 138.8 L 375.1 124.9 L 389 124.9 Z  M 416.8 124.9 L 416.8 138.8 L 402.9 138.8 L 402.9 124.9 L 416.8 124.9 Z  M 111 138.8 L 111 152.7 L 83.2 152.7 L 83.2 138.8 L 111 138.8 Z  M 138.8 138.8 L 138.8 152.7 L 124.9 152.7 L 124.9 138.8 L 138.8 138.8 Z  M 194.4 138.8 L 194.4 152.7 L 166.6 152.7 L 166.6 138.8 L 194.4 138.8 Z  M 333.4 138.8 L 333.4 152.7 L 305.6 152.7 L 305.6 138.8 L 333.4 138.8 Z  M 375.1 138.8 L 375.1 152.7 L 361.2 152.7 L 361.2 138.8 L 375.1 138.8 Z  M 416.8 138.8 L 416.8 152.7 L 389 152.7 L 389 138.8 L 416.8 138.8 Z  M 124.9 152.7 L 124.9 166.6 L 83.2 166.6 L 83.2 152.7 L 124.9 152.7 Z  M 152.7 152.7 L 152.7 166.6 L 138.8 166.6 L 138.8 152.7 L 152.7 152.7 Z  M 194.4 152.7 L 194.4 166.6 L 166.6 166.6 L 166.6 152.7 L 194.4 152.7 Z  M 333.4 152.7 L 333.4 166.6 L 305.6 166.6 L 305.6 152.7 L 333.4 152.7 Z  M 361.2 152.7 L 361.2 166.6 L 347.3 166.6 L 347.3 152.7 L 361.2 152.7 Z  M 416.8 152.7 L 416.8 166.6 L 375.1 166.6 L 375.1 152.7 L 416.8 152.7 Z  M 402.9 166.6 L 402.9 180.5 L 97.1 180.5 L 97.1 166.6 L 402.9 166.6 Z  M 402.9 180.5 L 402.9 194.4 L 97.1 194.4 L 97.1 180.5 L 402.9 180.5 Z  M 138.8 194.4 L 138.8 208.3 L 97.1 208.3 L 97.1 194.4 L 138.8 194.4 Z  M 319.5 194.4 L 319.5 208.3 L 180.5 208.3 L 180.5 194.4 L 319.5 194.4 Z  M 402.9 194.4 L 402.9 208.3 L 361.2 208.3 L 361.2 194.4 L 402.9 194.4 Z  M 180.5 208.3 L 180.5 222.2 L 97.1 222.2 L 97.1 208.3 L 180.5 208.3 Z  M 305.6 208.3 L 305.6 222.2 L 194.4 222.2 L 194.4 208.3 L 305.6 208.3 Z  M 402.9 208.3 L 402.9 222.2 L 319.5 222.2 L 319.5 208.3 L 402.9 208.3 Z  M 194.4 222.2 L 194.4 236.1 L 97.1 236.1 L 97.1 222.2 L 194.4 222.2 Z  M 291.7 222.2 L 291.7 236.1 L 208.3 236.1 L 208.3 222.2 L 291.7 222.2 Z  M 402.9 222.2 L 402.9 236.1 L 305.6 236.1 L 305.6 222.2 L 402.9 222.2 Z  M 236.1 236.1 L 236.1 250 L 111 250 L 111 236.1 L 236.1 236.1 Z  M 389 236.1 L 389 250 L 263.9 250 L 263.9 236.1 L 389 236.1 Z  M 208.3 250 L 208.3 263.9 L 124.9 263.9 L 124.9 250 L 208.3 250 Z  M 236.1 250 L 236.1 263.9 L 222.2 263.9 L 222.2 250 L 236.1 250 Z  M 277.8 250 L 277.8 263.9 L 263.9 263.9 L 263.9 250 L 277.8 250 Z  M 375.1 250 L 375.1 263.9 L 291.7 263.9 L 291.7 250 L 375.1 250 Z  M 416.8 250 L 416.8 263.9 L 402.9 263.9 L 402.9 250 L 416.8 250 Z  M 222.2 263.9 L 222.2 277.8 L 166.6 277.8 L 166.6 263.9 L 222.2 263.9 Z  M 263.9 263.9 L 263.9 277.8 L 236.1 277.8 L 236.1 263.9 L 263.9 263.9 Z  M 319.5 263.9 L 319.5 277.8 L 277.8 277.8 L 277.8 263.9 L 319.5 263.9 Z  M 430.7 263.9 L 430.7 277.8 L 402.9 277.8 L 402.9 263.9 L 430.7 263.9 Z  M 430.7 277.8 L 430.7 291.7 L 416.8 291.7 L 416.8 277.8 L 430.7 277.8 Z  M 305.6 291.7 L 305.6 305.6 L 291.7 305.6 L 291.7 291.7 L 305.6 291.7 Z  M 361.2 291.7 L 361.2 305.6 L 347.3 305.6 L 347.3 291.7 L 361.2 291.7 Z  M 305.6 305.6 L 305.6 319.5 L 222.2 319.5 L 222.2 305.6 L 305.6 305.6 Z  M 361.2 305.6 L 361.2 319.5 L 347.3 319.5 L 347.3 305.6 L 361.2 305.6 Z  M 305.6 319.5 L 305.6 333.4 L 208.3 333.4 L 208.3 319.5 L 305.6 319.5 Z  M 361.2 319.5 L 361.2 333.4 L 347.3 333.4 L 347.3 319.5 L 361.2 319.5 Z  M 236.1 333.4 L 236.1 347.3 L 208.3 347.3 L 208.3 333.4 L 236.1 333.4 Z  M 263.9 333.4 L 263.9 347.3 L 250 347.3 L 250 333.4 L 263.9 333.4 Z  M 305.6 333.4 L 305.6 347.3 L 277.8 347.3 L 277.8 333.4 L 305.6 333.4 Z  M 222.2 347.3 L 222.2 361.2 L 208.3 361.2 L 208.3 347.3 L 222.2 347.3 Z  M 250 347.3 L 250 361.2 L 236.1 361.2 L 236.1 347.3 L 250 347.3 Z  M 305.6 347.3 L 305.6 361.2 L 263.9 361.2 L 263.9 347.3 L 305.6 347.3 Z  M 180.5 361.2 L 180.5 375.1 L 166.6 375.1 L 166.6 361.2 L 180.5 361.2 Z  M 222.2 361.2 L 222.2 375.1 L 208.3 375.1 L 208.3 361.2 L 222.2 361.2 Z  M 263.9 361.2 L 263.9 375.1 L 250 375.1 L 250 361.2 L 263.9 361.2 Z  M 305.6 361.2 L 305.6 375.1 L 277.8 375.1 L 277.8 361.2 L 305.6 361.2 Z  M 333.4 361.2 L 333.4 375.1 L 319.5 375.1 L 319.5 361.2 L 333.4 361.2 Z  M 180.5 375.1 L 180.5 389 L 166.6 389 L 166.6 375.1 L 180.5 375.1 Z  M 222.2 375.1 L 222.2 389 L 208.3 389 L 208.3 375.1 L 222.2 375.1 Z  M 305.6 375.1 L 305.6 389 L 277.8 389 L 277.8 375.1 L 305.6 375.1 Z  M 180.5 389 L 180.5 402.9 L 166.6 402.9 L 166.6 389 L 180.5 389 Z  M 236.1 389 L 236.1 402.9 L 208.3 402.9 L 208.3 389 L 236.1 389 Z  M 305.6 389 L 305.6 402.9 L 277.8 402.9 L 277.8 389 L 305.6 389 Z  M 236.1 402.9 L 236.1 416.8 L 208.3 416.8 L 208.3 402.9 L 236.1 402.9 Z  M 291.7 402.9 L 291.7 416.8 L 277.8 416.8 L 277.8 402.9 L 291.7 402.9 Z " fill-rule="evenodd" fill="rgb(95,205,228)"/><path d=" M 138.8 111 L 138.8 124.9 L 111 124.9 L 111 111 L 138.8 111 Z  M 389 111 L 389 124.9 L 361.2 124.9 L 361.2 111 L 389 111 Z  M 111 124.9 L 111 138.8 L 97.1 138.8 L 97.1 124.9 L 111 124.9 Z  M 152.7 124.9 L 152.7 138.8 L 124.9 138.8 L 124.9 124.9 L 152.7 124.9 Z  M 375.1 124.9 L 375.1 138.8 L 347.3 138.8 L 347.3 124.9 L 375.1 124.9 Z  M 402.9 124.9 L 402.9 138.8 L 389 138.8 L 389 124.9 L 402.9 124.9 Z  M 124.9 138.8 L 124.9 152.7 L 111 152.7 L 111 138.8 L 124.9 138.8 Z  M 166.6 138.8 L 166.6 152.7 L 138.8 152.7 L 138.8 138.8 L 166.6 138.8 Z  M 361.2 138.8 L 361.2 152.7 L 333.4 152.7 L 333.4 138.8 L 361.2 138.8 Z  M 389 138.8 L 389 152.7 L 375.1 152.7 L 375.1 138.8 L 389 138.8 Z  M 138.8 152.7 L 138.8 166.6 L 124.9 166.6 L 124.9 152.7 L 138.8 152.7 Z  M 166.6 152.7 L 166.6 166.6 L 152.7 166.6 L 152.7 152.7 L 166.6 152.7 Z  M 347.3 152.7 L 347.3 166.6 L 333.4 166.6 L 333.4 152.7 L 347.3 152.7 Z  M 375.1 152.7 L 375.1 166.6 L 361.2 166.6 L 361.2 152.7 L 375.1 152.7 Z  M 97.1 194.4 L 97.1 208.3 L 83.2 208.3 L 83.2 194.4 L 97.1 194.4 Z  M 416.8 194.4 L 416.8 208.3 L 402.9 208.3 L 402.9 194.4 L 416.8 194.4 Z  M 97.1 208.3 L 97.1 222.2 L 83.2 222.2 L 83.2 208.3 L 97.1 208.3 Z  M 416.8 208.3 L 416.8 222.2 L 402.9 222.2 L 402.9 208.3 L 416.8 208.3 Z  M 97.1 222.2 L 97.1 236.1 L 83.2 236.1 L 83.2 222.2 L 97.1 222.2 Z  M 416.8 222.2 L 416.8 236.1 L 402.9 236.1 L 402.9 222.2 L 416.8 222.2 Z  M 111 236.1 L 111 250 L 97.1 250 L 97.1 236.1 L 111 236.1 Z  M 263.9 236.1 L 263.9 250 L 236.1 250 L 236.1 236.1 L 263.9 236.1 Z  M 402.9 236.1 L 402.9 250 L 389 250 L 389 236.1 L 402.9 236.1 Z  M 124.9 250 L 124.9 263.9 L 111 263.9 L 111 250 L 124.9 250 Z  M 263.9 250 L 263.9 263.9 L 250 263.9 L 250 250 L 263.9 250 Z  M 389 250 L 389 263.9 L 375.1 263.9 L 375.1 250 L 389 250 Z  M 333.4 263.9 L 333.4 277.8 L 319.5 277.8 L 319.5 263.9 L 333.4 263.9 Z  M 375.1 277.8 L 375.1 291.7 L 361.2 291.7 L 361.2 277.8 L 375.1 277.8 Z  M 291.7 291.7 L 291.7 305.6 L 194.4 305.6 L 194.4 291.7 L 291.7 291.7 Z  M 222.2 305.6 L 222.2 319.5 L 194.4 319.5 L 194.4 305.6 L 222.2 305.6 Z  M 208.3 319.5 L 208.3 333.4 L 194.4 333.4 L 194.4 319.5 L 208.3 319.5 Z  M 347.3 319.5 L 347.3 333.4 L 333.4 333.4 L 333.4 319.5 L 347.3 319.5 Z  M 208.3 333.4 L 208.3 347.3 L 194.4 347.3 L 194.4 333.4 L 208.3 333.4 Z  M 347.3 333.4 L 347.3 347.3 L 319.5 347.3 L 319.5 333.4 L 347.3 333.4 Z  M 208.3 347.3 L 208.3 361.2 L 194.4 361.2 L 194.4 347.3 L 208.3 347.3 Z  M 208.3 361.2 L 208.3 375.1 L 194.4 375.1 L 194.4 361.2 L 208.3 361.2 Z  M 208.3 375.1 L 208.3 389 L 194.4 389 L 194.4 375.1 L 208.3 375.1 Z  M 250 375.1 L 250 389 L 236.1 389 L 236.1 375.1 L 250 375.1 Z  M 277.8 375.1 L 277.8 389 L 263.9 389 L 263.9 375.1 L 277.8 375.1 Z  M 333.4 375.1 L 333.4 389 L 319.5 389 L 319.5 375.1 L 333.4 375.1 Z  M 208.3 389 L 208.3 402.9 L 194.4 402.9 L 194.4 389 L 208.3 389 Z  M 277.8 389 L 277.8 402.9 L 263.9 402.9 L 263.9 389 L 277.8 389 Z  M 333.4 389 L 333.4 402.9 L 319.5 402.9 L 319.5 389 L 333.4 389 Z  M 277.8 402.9 L 277.8 416.8 L 263.9 416.8 L 263.9 402.9 L 277.8 402.9 Z " fill-rule="evenodd" fill="rgb(48,96,130)"/></g></g></svg>