<svg xmlns="http://www.w3.org/2000/svg" shape-rendering="crispEdges" viewBox="0 -0.5 32 32" width="32" height="32"><metadata>Generated with pixel-perfect-svg https://github.com/kagof/pixel-perfect-svg</metadata><path stroke="#45283c" d="M5,3h4M23,3h4M4,4h1M9,4h1M22,4h1M27,4h1M3,5h1M10,5h1M21,5h1M28,5h1M3,6h1M11,6h1M20,6h1M28,6h1M3,7h1M12,7h1M19,7h1M28,7h1M3,8h1M12,8h1M19,8h1M28,8h1M3,9h1M12,9h8M28,9h1M1,10h1M4,10h1M27,10h1M30,10h1M2,11h1M4,11h1M27,11h1M29,11h1M3,12h1M8,12h3M21,12h3M28,12h1M1,13h3M11,13h1M20,13h1M28,13h3M3,14h1M12,14h1M19,14h1M28,14h1M2,15h1M4,15h1M27,15h1M29,15h1M1,16h1M5,16h1M13,16h1M15,16h1M18,16h1M26,16h1M28,16h1M30,16h1M6,17h4M14,17h1M17,17h1M22,17h5M29,17h1M10,18h12M23,18h1M25,18h1M27,18h1M29,18h1M11,19h1M20,19h1M22,19h1M24,19h1M28,19h1M11,20h1M20,20h1M22,20h1M24,20h1M11,21h1M20,21h2M24,21h1M11,22h1M15,22h1M17,22h1M20,22h1M23,22h1M10,23h2M14,23h1M16,23h1M20,23h3M9,24h1M11,24h1M14,24h2M17,24h1M20,24h1M22,24h1M9,25h1M11,25h1M14,25h1M16,25h1M20,25h1M22,25h1M9,26h1M11,26h1M15,26h2M20,26h1M22,26h1M9,27h4M15,27h2M19,27h4M13,28h2M17,28h2"/><path stroke="#5fcde4" d="M5,4h4M23,4h4M4,5h6M22,5h6M4,6h2M8,6h3M21,6h3M26,6h2M4,7h1M6,7h1M9,7h3M20,7h3M25,7h1M27,7h1M4,8h2M7,8h1M10,8h2M20,8h2M24,8h1M26,8h2M4,9h3M8,9h1M10,9h2M20,9h2M23,9h1M25,9h3M5,10h22M5,11h22M5,12h3M11,12h10M24,12h3M5,13h6M12,13h8M21,13h6M5,14h7M13,14h6M20,14h7M6,15h9M17,15h9M7,16h6M14,16h1M17,16h1M19,16h6M27,16h1M10,17h4M15,17h2M18,17h3M27,17h2M28,18h1M19,19h1M23,19h1M14,20h6M23,20h1M13,21h7M23,21h1M13,22h2M16,22h1M18,22h2M13,23h1M15,23h1M17,23h3M10,24h1M13,24h1M16,24h1M18,24h2M21,24h1M10,25h1M13,25h1M18,25h2M10,26h1M13,26h2M18,26h2M13,27h2M18,27h1"/><path stroke="#306082" d="M6,6h2M24,6h2M5,7h1M7,7h2M23,7h2M26,7h1M6,8h1M8,8h2M22,8h2M25,8h1M7,9h1M9,9h1M22,9h1M24,9h1M4,12h1M27,12h1M4,13h1M27,13h1M4,14h1M27,14h1M5,15h1M15,15h2M26,15h1M6,16h1M16,16h1M25,16h1M21,17h1M24,18h1M12,19h7M12,20h2M12,21h1M22,21h1M12,22h1M21,22h2M12,23h1M12,24h1M12,25h1M15,25h1M17,25h1M21,25h1M12,26h1M17,26h1M21,26h1M17,27h1"/></svg>
