<?xml version="1.0" encoding="UTF-8" standalone="no"?><!-- Generator: Gravit.io --><svg xmlns="http://www.w3.org/2000/svg" xmlns:xlink="http://www.w3.org/1999/xlink" style="isolation:isolate" viewBox="0 0 1200 630" width="1200pt" height="630pt"><defs><clipPath id="_clipPath_IGIXmy5GurTGdtWw3E6UjP6cWWrZe4aF"><rect width="1200" height="630"/></clipPath></defs><g clip-path="url(#_clipPath_IGIXmy5GurTGdtWw3E6UjP6cWWrZe4aF)"><rect width="1200" height="630" style="fill:rgb(217,87,99)"/><g><path d=" M 502.7 66.05 L 502.7 79.95 L 447.1 79.95 L 447.1 66.05 L 502.7 66.05 Z  M 752.9 66.05 L 752.9 79.95 L 697.3 79.95 L 697.3 66.05 L 752.9 66.05 Z  M 447.1 79.95 L 447.1 93.85 L 433.2 93.85 L 433.2 79.95 L 447.1 79.95 Z  M 516.6 79.95 L 516.6 93.85 L 502.7 93.85 L 502.7 79.95 L 516.6 79.95 Z  M 697.3 79.95 L 697.3 93.85 L 683.4 93.85 L 683.4 79.95 L 697.3 79.95 Z  M 766.8 79.95 L 766.8 93.85 L 752.9 93.85 L 752.9 79.95 L 766.8 79.95 Z  M 433.2 93.85 L 433.2 107.75 L 419.3 107.75 L 419.3 93.85 L 433.2 93.85 Z  M 530.5 93.85 L 530.5 107.75 L 516.6 107.75 L 516.6 93.85 L 530.5 93.85 Z  M 683.4 93.85 L 683.4 107.75 L 669.5 107.75 L 669.5 93.85 L 683.4 93.85 Z  M 780.7 93.85 L 780.7 107.75 L 766.8 107.75 L 766.8 93.85 L 780.7 93.85 Z  M 433.2 107.75 L 433.2 121.65 L 419.3 121.65 L 419.3 107.75 L 433.2 107.75 Z  M 544.4 107.75 L 544.4 121.65 L 530.5 121.65 L 530.5 107.75 L 544.4 107.75 Z  M 669.5 107.75 L 669.5 121.65 L 655.6 121.65 L 655.6 107.75 L 669.5 107.75 Z  M 780.7 107.75 L 780.7 121.65 L 766.8 121.65 L 766.8 107.75 L 780.7 107.75 Z  M 433.2 121.65 L 433.2 135.55 L 419.3 135.55 L 419.3 121.65 L 433.2 121.65 Z  M 558.3 121.65 L 558.3 135.55 L 544.4 135.55 L 544.4 121.65 L 558.3 121.65 Z  M 655.6 121.65 L 655.6 135.55 L 641.7 135.55 L 641.7 121.65 L 655.6 121.65 Z  M 780.7 121.65 L 780.7 135.55 L 766.8 135.55 L 766.8 121.65 L 780.7 121.65 Z  M 433.2 135.55 L 433.2 149.45 L 419.3 149.45 L 419.3 135.55 L 433.2 135.55 Z  M 558.3 135.55 L 558.3 149.45 L 544.4 149.45 L 544.4 135.55 L 558.3 135.55 Z  M 655.6 135.55 L 655.6 149.45 L 641.7 149.45 L 641.7 135.55 L 655.6 135.55 Z  M 780.7 135.55 L 780.7 149.45 L 766.8 149.45 L 766.8 135.55 L 780.7 135.55 Z  M 433.2 149.45 L 433.2 163.35 L 419.3 163.35 L 419.3 149.45 L 433.2 149.45 Z  M 655.6 149.45 L 655.6 163.35 L 544.4 163.35 L 544.4 149.45 L 655.6 149.45 Z  M 780.7 149.45 L 780.7 163.35 L 766.8 163.35 L 766.8 149.45 L 780.7 149.45 Z  M 405.4 163.35 L 405.4 177.25 L 391.5 177.25 L 391.5 163.35 L 405.4 163.35 Z  M 447.1 163.35 L 447.1 177.25 L 433.2 177.25 L 433.2 163.35 L 447.1 163.35 Z  M 766.8 163.35 L 766.8 177.25 L 752.9 177.25 L 752.9 163.35 L 766.8 163.35 Z  M 808.5 163.35 L 808.5 177.25 L 794.6 177.25 L 794.6 163.35 L 808.5 163.35 Z  M 419.3 177.25 L 419.3 191.15 L 405.4 191.15 L 405.4 177.25 L 419.3 177.25 Z  M 447.1 177.25 L 447.1 191.15 L 433.2 191.15 L 433.2 177.25 L 447.1 177.25 Z  M 766.8 177.25 L 766.8 191.15 L 752.9 191.15 L 752.9 177.25 L 766.8 177.25 Z  M 794.6 177.25 L 794.6 191.15 L 780.7 191.15 L 780.7 177.25 L 794.6 177.25 Z  M 433.2 191.15 L 433.2 205.05 L 419.3 205.05 L 419.3 191.15 L 433.2 191.15 Z  M 530.5 191.15 L 530.5 205.05 L 488.8 205.05 L 488.8 191.15 L 530.5 191.15 Z  M 711.2 191.15 L 711.2 205.05 L 669.5 205.05 L 669.5 191.15 L 711.2 191.15 Z  M 780.7 191.15 L 780.7 205.05 L 766.8 205.05 L 766.8 191.15 L 780.7 191.15 Z  M 433.2 205.05 L 433.2 218.95 L 391.5 218.95 L 391.5 205.05 L 433.2 205.05 Z  M 544.4 205.05 L 544.4 218.95 L 530.5 218.95 L 530.5 205.05 L 544.4 205.05 Z  M 669.5 205.05 L 669.5 218.95 L 655.6 218.95 L 655.6 205.05 L 669.5 205.05 Z  M 808.5 205.05 L 808.5 218.95 L 766.8 218.95 L 766.8 205.05 L 808.5 205.05 Z  M 433.2 218.95 L 433.2 232.85 L 419.3 232.85 L 419.3 218.95 L 433.2 218.95 Z  M 558.3 218.95 L 558.3 232.85 L 544.4 232.85 L 544.4 218.95 L 558.3 218.95 Z  M 655.6 218.95 L 655.6 232.85 L 641.7 232.85 L 641.7 218.95 L 655.6 218.95 Z  M 780.7 218.95 L 780.7 232.85 L 766.8 232.85 L 766.8 218.95 L 780.7 218.95 Z  M 419.3 232.85 L 419.3 246.75 L 405.4 246.75 L 405.4 232.85 L 419.3 232.85 Z  M 447.1 232.85 L 447.1 246.75 L 433.2 246.75 L 433.2 232.85 L 447.1 232.85 Z  M 766.8 232.85 L 766.8 246.75 L 752.9 246.75 L 752.9 232.85 L 766.8 232.85 Z  M 794.6 232.85 L 794.6 246.75 L 780.7 246.75 L 780.7 232.85 L 794.6 232.85 Z  M 405.4 246.75 L 405.4 260.65 L 391.5 260.65 L 391.5 246.75 L 405.4 246.75 Z  M 461 246.75 L 461 260.65 L 447.1 260.65 L 447.1 246.75 L 461 246.75 Z  M 572.2 246.75 L 572.2 260.65 L 558.3 260.65 L 558.3 246.75 L 572.2 246.75 Z  M 600 246.75 L 600 260.65 L 586.1 260.65 L 586.1 246.75 L 600 246.75 Z  M 641.7 246.75 L 641.7 260.65 L 627.8 260.65 L 627.8 246.75 L 641.7 246.75 Z  M 752.9 246.75 L 752.9 260.65 L 739 260.65 L 739 246.75 L 752.9 246.75 Z  M 780.7 246.75 L 780.7 260.65 L 766.8 260.65 L 766.8 246.75 L 780.7 246.75 Z  M 808.5 246.75 L 808.5 260.65 L 794.6 260.65 L 794.6 246.75 L 808.5 246.75 Z  M 516.6 260.65 L 516.6 274.55 L 461 274.55 L 461 260.65 L 516.6 260.65 Z  M 586.1 260.65 L 586.1 274.55 L 572.2 274.55 L 572.2 260.65 L 586.1 260.65 Z  M 627.8 260.65 L 627.8 274.55 L 613.9 274.55 L 613.9 260.65 L 627.8 260.65 Z  M 752.9 260.65 L 752.9 274.55 L 683.4 274.55 L 683.4 260.65 L 752.9 260.65 Z  M 794.6 260.65 L 794.6 274.55 L 780.7 274.55 L 780.7 260.65 L 794.6 260.65 Z  M 683.4 274.55 L 683.4 288.45 L 516.6 288.45 L 516.6 274.55 L 683.4 274.55 Z  M 711.2 274.55 L 711.2 288.45 L 697.3 288.45 L 697.3 274.55 L 711.2 274.55 Z  M 739 274.55 L 739 288.45 L 725.1 288.45 L 725.1 274.55 L 739 274.55 Z  M 766.8 274.55 L 766.8 288.45 L 752.9 288.45 L 752.9 274.55 L 766.8 274.55 Z  M 794.6 274.55 L 794.6 288.45 L 780.7 288.45 L 780.7 274.55 L 794.6 274.55 Z  M 544.4 288.45 L 544.4 302.35 L 530.5 302.35 L 530.5 288.45 L 544.4 288.45 Z  M 669.5 288.45 L 669.5 302.35 L 655.6 302.35 L 655.6 288.45 L 669.5 288.45 Z  M 697.3 288.45 L 697.3 302.35 L 683.4 302.35 L 683.4 288.45 L 697.3 288.45 Z  M 725.1 288.45 L 725.1 302.35 L 711.2 302.35 L 711.2 288.45 L 725.1 288.45 Z  M 780.7 288.45 L 780.7 302.35 L 766.8 302.35 L 766.8 288.45 L 780.7 288.45 Z  M 544.4 302.35 L 544.4 316.25 L 530.5 316.25 L 530.5 302.35 L 544.4 302.35 Z  M 669.5 302.35 L 669.5 316.25 L 655.6 316.25 L 655.6 302.35 L 669.5 302.35 Z  M 697.3 302.35 L 697.3 316.25 L 683.4 316.25 L 683.4 302.35 L 697.3 302.35 Z  M 725.1 302.35 L 725.1 316.25 L 711.2 316.25 L 711.2 302.35 L 725.1 302.35 Z  M 544.4 316.25 L 544.4 330.15 L 530.5 330.15 L 530.5 316.25 L 544.4 316.25 Z  M 683.4 316.25 L 683.4 330.15 L 655.6 330.15 L 655.6 316.25 L 683.4 316.25 Z  M 725.1 316.25 L 725.1 330.15 L 711.2 330.15 L 711.2 316.25 L 725.1 316.25 Z  M 544.4 330.15 L 544.4 344.05 L 530.5 344.05 L 530.5 330.15 L 544.4 330.15 Z  M 600 330.15 L 600 344.05 L 586.1 344.05 L 586.1 330.15 L 600 330.15 Z  M 627.8 330.15 L 627.8 344.05 L 613.9 344.05 L 613.9 330.15 L 627.8 330.15 Z  M 669.5 330.15 L 669.5 344.05 L 655.6 344.05 L 655.6 330.15 L 669.5 330.15 Z  M 711.2 330.15 L 711.2 344.05 L 697.3 344.05 L 697.3 330.15 L 711.2 330.15 Z  M 544.4 344.05 L 544.4 357.95 L 516.6 357.95 L 516.6 344.05 L 544.4 344.05 Z  M 586.1 344.05 L 586.1 357.95 L 572.2 357.95 L 572.2 344.05 L 586.1 344.05 Z  M 613.9 344.05 L 613.9 357.95 L 600 357.95 L 600 344.05 L 613.9 344.05 Z  M 697.3 344.05 L 697.3 357.95 L 655.6 357.95 L 655.6 344.05 L 697.3 344.05 Z  M 516.6 357.95 L 516.6 371.85 L 502.7 371.85 L 502.7 357.95 L 516.6 357.95 Z  M 544.4 357.95 L 544.4 371.85 L 530.5 371.85 L 530.5 357.95 L 544.4 357.95 Z  M 600 357.95 L 600 371.85 L 572.2 371.85 L 572.2 357.95 L 600 357.95 Z  M 627.8 357.95 L 627.8 371.85 L 613.9 371.85 L 613.9 357.95 L 627.8 357.95 Z  M 669.5 357.95 L 669.5 371.85 L 655.6 371.85 L 655.6 357.95 L 669.5 357.95 Z  M 697.3 357.95 L 697.3 371.85 L 683.4 371.85 L 683.4 357.95 L 697.3 357.95 Z  M 516.6 371.85 L 516.6 385.75 L 502.7 385.75 L 502.7 371.85 L 516.6 371.85 Z  M 544.4 371.85 L 544.4 385.75 L 530.5 385.75 L 530.5 371.85 L 544.4 371.85 Z  M 586.1 371.85 L 586.1 385.75 L 572.2 385.75 L 572.2 371.85 L 586.1 371.85 Z  M 613.9 371.85 L 613.9 385.75 L 600 385.75 L 600 371.85 L 613.9 371.85 Z  M 669.5 371.85 L 669.5 385.75 L 655.6 385.75 L 655.6 371.85 L 669.5 371.85 Z  M 697.3 371.85 L 697.3 385.75 L 683.4 385.75 L 683.4 371.85 L 697.3 371.85 Z  M 516.6 385.75 L 516.6 399.65 L 502.7 399.65 L 502.7 385.75 L 516.6 385.75 Z  M 544.4 385.75 L 544.4 399.65 L 530.5 399.65 L 530.5 385.75 L 544.4 385.75 Z  M 613.9 385.75 L 613.9 399.65 L 586.1 399.65 L 586.1 385.75 L 613.9 385.75 Z  M 669.5 385.75 L 669.5 399.65 L 655.6 399.65 L 655.6 385.75 L 669.5 385.75 Z  M 697.3 385.75 L 697.3 399.65 L 683.4 399.65 L 683.4 385.75 L 697.3 385.75 Z  M 558.3 399.65 L 558.3 413.55 L 502.7 413.55 L 502.7 399.65 L 558.3 399.65 Z  M 613.9 399.65 L 613.9 413.55 L 586.1 413.55 L 586.1 399.65 L 613.9 399.65 Z  M 697.3 399.65 L 697.3 413.55 L 641.7 413.55 L 641.7 399.65 L 697.3 399.65 Z  M 586.1 413.55 L 586.1 427.45 L 558.3 427.45 L 558.3 413.55 L 586.1 413.55 Z  M 641.7 413.55 L 641.7 427.45 L 613.9 427.45 L 613.9 413.55 L 641.7 413.55 Z " fill-rule="evenodd" fill="rgb(69,40,60)"/><path d=" M 502.7 79.95 L 502.7 93.85 L 447.1 93.85 L 447.1 79.95 L 502.7 79.95 Z  M 752.9 79.95 L 752.9 93.85 L 697.3 93.85 L 697.3 79.95 L 752.9 79.95 Z  M 516.6 93.85 L 516.6 107.75 L 433.2 107.75 L 433.2 93.85 L 516.6 93.85 Z  M 766.8 93.85 L 766.8 107.75 L 683.4 107.75 L 683.4 93.85 L 766.8 93.85 Z  M 461 107.75 L 461 121.65 L 433.2 121.65 L 433.2 107.75 L 461 107.75 Z  M 530.5 107.75 L 530.5 121.65 L 488.8 121.65 L 488.8 107.75 L 530.5 107.75 Z  M 711.2 107.75 L 711.2 121.65 L 669.5 121.65 L 669.5 107.75 L 711.2 107.75 Z  M 766.8 107.75 L 766.8 121.65 L 739 121.65 L 739 107.75 L 766.8 107.75 Z  M 447.1 121.65 L 447.1 135.55 L 433.2 135.55 L 433.2 121.65 L 447.1 121.65 Z  M 474.9 121.65 L 474.9 135.55 L 461 135.55 L 461 121.65 L 474.9 121.65 Z  M 544.4 121.65 L 544.4 135.55 L 502.7 135.55 L 502.7 121.65 L 544.4 121.65 Z  M 697.3 121.65 L 697.3 135.55 L 655.6 135.55 L 655.6 121.65 L 697.3 121.65 Z  M 739 121.65 L 739 135.55 L 725.1 135.55 L 725.1 121.65 L 739 121.65 Z  M 766.8 121.65 L 766.8 135.55 L 752.9 135.55 L 752.9 121.65 L 766.8 121.65 Z  M 461 135.55 L 461 149.45 L 433.2 149.45 L 433.2 135.55 L 461 135.55 Z  M 488.8 135.55 L 488.8 149.45 L 474.9 149.45 L 474.9 135.55 L 488.8 135.55 Z  M 544.4 135.55 L 544.4 149.45 L 516.6 149.45 L 516.6 135.55 L 544.4 135.55 Z  M 683.4 135.55 L 683.4 149.45 L 655.6 149.45 L 655.6 135.55 L 683.4 135.55 Z  M 725.1 135.55 L 725.1 149.45 L 711.2 149.45 L 711.2 135.55 L 725.1 135.55 Z  M 766.8 135.55 L 766.8 149.45 L 739 149.45 L 739 135.55 L 766.8 135.55 Z  M 474.9 149.45 L 474.9 163.35 L 433.2 163.35 L 433.2 149.45 L 474.9 149.45 Z  M 502.7 149.45 L 502.7 163.35 L 488.8 163.35 L 488.8 149.45 L 502.7 149.45 Z  M 544.4 149.45 L 544.4 163.35 L 516.6 163.35 L 516.6 149.45 L 544.4 149.45 Z  M 683.4 149.45 L 683.4 163.35 L 655.6 163.35 L 655.6 149.45 L 683.4 149.45 Z  M 711.2 149.45 L 711.2 163.35 L 697.3 163.35 L 697.3 149.45 L 711.2 149.45 Z  M 766.8 149.45 L 766.8 163.35 L 725.1 163.35 L 725.1 149.45 L 766.8 149.45 Z  M 752.9 163.35 L 752.9 177.25 L 447.1 177.25 L 447.1 163.35 L 752.9 163.35 Z  M 752.9 177.25 L 752.9 191.15 L 447.1 191.15 L 447.1 177.25 L 752.9 177.25 Z  M 488.8 191.15 L 488.8 205.05 L 447.1 205.05 L 447.1 191.15 L 488.8 191.15 Z  M 669.5 191.15 L 669.5 205.05 L 530.5 205.05 L 530.5 191.15 L 669.5 191.15 Z  M 752.9 191.15 L 752.9 205.05 L 711.2 205.05 L 711.2 191.15 L 752.9 191.15 Z  M 530.5 205.05 L 530.5 218.95 L 447.1 218.95 L 447.1 205.05 L 530.5 205.05 Z  M 655.6 205.05 L 655.6 218.95 L 544.4 218.95 L 544.4 205.05 L 655.6 205.05 Z  M 752.9 205.05 L 752.9 218.95 L 669.5 218.95 L 669.5 205.05 L 752.9 205.05 Z  M 544.4 218.95 L 544.4 232.85 L 447.1 232.85 L 447.1 218.95 L 544.4 218.95 Z  M 641.7 218.95 L 641.7 232.85 L 558.3 232.85 L 558.3 218.95 L 641.7 218.95 Z  M 752.9 218.95 L 752.9 232.85 L 655.6 232.85 L 655.6 218.95 L 752.9 218.95 Z  M 586.1 232.85 L 586.1 246.75 L 461 246.75 L 461 232.85 L 586.1 232.85 Z  M 739 232.85 L 739 246.75 L 613.9 246.75 L 613.9 232.85 L 739 232.85 Z  M 558.3 246.75 L 558.3 260.65 L 474.9 260.65 L 474.9 246.75 L 558.3 246.75 Z  M 586.1 246.75 L 586.1 260.65 L 572.2 260.65 L 572.2 246.75 L 586.1 246.75 Z  M 627.8 246.75 L 627.8 260.65 L 613.9 260.65 L 613.9 246.75 L 627.8 246.75 Z  M 725.1 246.75 L 725.1 260.65 L 641.7 260.65 L 641.7 246.75 L 725.1 246.75 Z  M 766.8 246.75 L 766.8 260.65 L 752.9 260.65 L 752.9 246.75 L 766.8 246.75 Z  M 572.2 260.65 L 572.2 274.55 L 516.6 274.55 L 516.6 260.65 L 572.2 260.65 Z  M 613.9 260.65 L 613.9 274.55 L 586.1 274.55 L 586.1 260.65 L 613.9 260.65 Z  M 669.5 260.65 L 669.5 274.55 L 627.8 274.55 L 627.8 260.65 L 669.5 260.65 Z  M 780.7 260.65 L 780.7 274.55 L 752.9 274.55 L 752.9 260.65 L 780.7 260.65 Z  M 780.7 274.55 L 780.7 288.45 L 766.8 288.45 L 766.8 274.55 L 780.7 274.55 Z  M 655.6 288.45 L 655.6 302.35 L 641.7 302.35 L 641.7 288.45 L 655.6 288.45 Z  M 711.2 288.45 L 711.2 302.35 L 697.3 302.35 L 697.3 288.45 L 711.2 288.45 Z  M 655.6 302.35 L 655.6 316.25 L 572.2 316.25 L 572.2 302.35 L 655.6 302.35 Z  M 711.2 302.35 L 711.2 316.25 L 697.3 316.25 L 697.3 302.35 L 711.2 302.35 Z  M 655.6 316.25 L 655.6 330.15 L 558.3 330.15 L 558.3 316.25 L 655.6 316.25 Z  M 711.2 316.25 L 711.2 330.15 L 697.3 330.15 L 697.3 316.25 L 711.2 316.25 Z  M 586.1 330.15 L 586.1 344.05 L 558.3 344.05 L 558.3 330.15 L 586.1 330.15 Z  M 613.9 330.15 L 613.9 344.05 L 600 344.05 L 600 330.15 L 613.9 330.15 Z  M 655.6 330.15 L 655.6 344.05 L 627.8 344.05 L 627.8 330.15 L 655.6 330.15 Z  M 572.2 344.05 L 572.2 357.95 L 558.3 357.95 L 558.3 344.05 L 572.2 344.05 Z  M 600 344.05 L 600 357.95 L 586.1 357.95 L 586.1 344.05 L 600 344.05 Z  M 655.6 344.05 L 655.6 357.95 L 613.9 357.95 L 613.9 344.05 L 655.6 344.05 Z  M 530.5 357.95 L 530.5 371.85 L 516.6 371.85 L 516.6 357.95 L 530.5 357.95 Z  M 572.2 357.95 L 572.2 371.85 L 558.3 371.85 L 558.3 357.95 L 572.2 357.95 Z  M 613.9 357.95 L 613.9 371.85 L 600 371.85 L 600 357.95 L 613.9 357.95 Z  M 655.6 357.95 L 655.6 371.85 L 627.8 371.85 L 627.8 357.95 L 655.6 357.95 Z  M 683.4 357.95 L 683.4 371.85 L 669.5 371.85 L 669.5 357.95 L 683.4 357.95 Z  M 530.5 371.85 L 530.5 385.75 L 516.6 385.75 L 516.6 371.85 L 530.5 371.85 Z  M 572.2 371.85 L 572.2 385.75 L 558.3 385.75 L 558.3 371.85 L 572.2 371.85 Z  M 655.6 371.85 L 655.6 385.75 L 627.8 385.75 L 627.8 371.85 L 655.6 371.85 Z  M 530.5 385.75 L 530.5 399.65 L 516.6 399.65 L 516.6 385.75 L 530.5 385.75 Z  M 586.1 385.75 L 586.1 399.65 L 558.3 399.65 L 558.3 385.75 L 586.1 385.75 Z  M 655.6 385.75 L 655.6 399.65 L 627.8 399.65 L 627.8 385.75 L 655.6 385.75 Z  M 586.1 399.65 L 586.1 413.55 L 558.3 413.55 L 558.3 399.65 L 586.1 399.65 Z  M 641.7 399.65 L 641.7 413.55 L 627.8 413.55 L 627.8 399.65 L 641.7 399.65 Z " fill-rule="evenodd" fill="rgb(95,205,228)"/><path d=" M 488.8 107.75 L 488.8 121.65 L 461 121.65 L 461 107.75 L 488.8 107.75 Z  M 739 107.75 L 739 121.65 L 711.2 121.65 L 711.2 107.75 L 739 107.75 Z  M 461 121.65 L 461 135.55 L 447.1 135.55 L 447.1 121.65 L 461 121.65 Z  M 502.7 121.65 L 502.7 135.55 L 474.9 135.55 L 474.9 121.65 L 502.7 121.65 Z  M 725.1 121.65 L 725.1 135.55 L 697.3 135.55 L 697.3 121.65 L 725.1 121.65 Z  M 752.9 121.65 L 752.9 135.55 L 739 135.55 L 739 121.65 L 752.9 121.65 Z  M 474.9 135.55 L 474.9 149.45 L 461 149.45 L 461 135.55 L 474.9 135.55 Z  M 516.6 135.55 L 516.6 149.45 L 488.8 149.45 L 488.8 135.55 L 516.6 135.55 Z  M 711.2 135.55 L 711.2 149.45 L 683.4 149.45 L 683.4 135.55 L 711.2 135.55 Z  M 739 135.55 L 739 149.45 L 725.1 149.45 L 725.1 135.55 L 739 135.55 Z  M 488.8 149.45 L 488.8 163.35 L 474.9 163.35 L 474.9 149.45 L 488.8 149.45 Z  M 516.6 149.45 L 516.6 163.35 L 502.7 163.35 L 502.7 149.45 L 516.6 149.45 Z  M 697.3 149.45 L 697.3 163.35 L 683.4 163.35 L 683.4 149.45 L 697.3 149.45 Z  M 725.1 149.45 L 725.1 163.35 L 711.2 163.35 L 711.2 149.45 L 725.1 149.45 Z  M 447.1 191.15 L 447.1 205.05 L 433.2 205.05 L 433.2 191.15 L 447.1 191.15 Z  M 766.8 191.15 L 766.8 205.05 L 752.9 205.05 L 752.9 191.15 L 766.8 191.15 Z  M 447.1 205.05 L 447.1 218.95 L 433.2 218.95 L 433.2 205.05 L 447.1 205.05 Z  M 766.8 205.05 L 766.8 218.95 L 752.9 218.95 L 752.9 205.05 L 766.8 205.05 Z  M 447.1 218.95 L 447.1 232.85 L 433.2 232.85 L 433.2 218.95 L 447.1 218.95 Z  M 766.8 218.95 L 766.8 232.85 L 752.9 232.85 L 752.9 218.95 L 766.8 218.95 Z  M 461 232.85 L 461 246.75 L 447.1 246.75 L 447.1 232.85 L 461 232.85 Z  M 613.9 232.85 L 613.9 246.75 L 586.1 246.75 L 586.1 232.85 L 613.9 232.85 Z  M 752.9 232.85 L 752.9 246.75 L 739 246.75 L 739 232.85 L 752.9 232.85 Z  M 474.9 246.75 L 474.9 260.65 L 461 260.65 L 461 246.75 L 474.9 246.75 Z  M 613.9 246.75 L 613.9 260.65 L 600 260.65 L 600 246.75 L 613.9 246.75 Z  M 739 246.75 L 739 260.65 L 725.1 260.65 L 725.1 246.75 L 739 246.75 Z  M 683.4 260.65 L 683.4 274.55 L 669.5 274.55 L 669.5 260.65 L 683.4 260.65 Z  M 725.1 274.55 L 725.1 288.45 L 711.2 288.45 L 711.2 274.55 L 725.1 274.55 Z  M 641.7 288.45 L 641.7 302.35 L 544.4 302.35 L 544.4 288.45 L 641.7 288.45 Z  M 572.2 302.35 L 572.2 316.25 L 544.4 316.25 L 544.4 302.35 L 572.2 302.35 Z  M 558.3 316.25 L 558.3 330.15 L 544.4 330.15 L 544.4 316.25 L 558.3 316.25 Z  M 697.3 316.25 L 697.3 330.15 L 683.4 330.15 L 683.4 316.25 L 697.3 316.25 Z  M 558.3 330.15 L 558.3 344.05 L 544.4 344.05 L 544.4 330.15 L 558.3 330.15 Z  M 697.3 330.15 L 697.3 344.05 L 669.5 344.05 L 669.5 330.15 L 697.3 330.15 Z  M 558.3 344.05 L 558.3 357.95 L 544.4 357.95 L 544.4 344.05 L 558.3 344.05 Z  M 558.3 357.95 L 558.3 371.85 L 544.4 371.85 L 544.4 357.95 L 558.3 357.95 Z  M 558.3 371.85 L 558.3 385.75 L 544.4 385.75 L 544.4 371.85 L 558.3 371.85 Z  M 600 371.85 L 600 385.75 L 586.1 385.75 L 586.1 371.85 L 600 371.85 Z  M 627.8 371.85 L 627.8 385.75 L 613.9 385.75 L 613.9 371.85 L 627.8 371.85 Z  M 683.4 371.85 L 683.4 385.75 L 669.5 385.75 L 669.5 371.85 L 683.4 371.85 Z  M 558.3 385.75 L 558.3 399.65 L 544.4 399.65 L 544.4 385.75 L 558.3 385.75 Z  M 627.8 385.75 L 627.8 399.65 L 613.9 399.65 L 613.9 385.75 L 627.8 385.75 Z  M 683.4 385.75 L 683.4 399.65 L 669.5 399.65 L 669.5 385.75 L 683.4 385.75 Z  M 627.8 399.65 L 627.8 413.55 L 613.9 413.55 L 613.9 399.65 L 627.8 399.65 Z " fill-rule="evenodd" fill="rgb(48,96,130)"/></g><path d=" M 391.5 466.95 L 403.625 466.95 L 403.625 503.325 L 391.5 503.325 L 391.5 466.95 Z  M 440 466.95 L 452.125 466.95 L 452.125 503.325 L 440 503.325 L 440 466.95 Z  M 403.625 503.325 L 415.75 503.325 L 415.75 539.7 L 403.625 539.7 L 403.625 503.325 Z  M 427.875 503.325 L 440 503.325 L 440 539.7 L 427.875 539.7 L 427.875 503.325 Z  M 415.75 539.7 L 427.875 539.7 L 427.875 563.95 L 415.75 563.95 L 415.75 539.7 Z  M 464.25 503.325 L 476.375 503.325 L 476.375 551.825 L 464.25 551.825 L 464.25 503.325 Z  M 524.875 563.95 L 476.375 563.95 L 476.375 551.825 L 512.75 551.825 L 512.75 503.325 L 476.375 503.325 L 476.375 491.2 L 512.75 491.2 L 512.75 466.95 L 524.875 466.95 L 524.875 563.95 Z  M 537 491.2 L 549.125 491.2 L 549.125 551.825 L 537 551.825 L 537 491.2 Z  M 573.375 563.95 L 549.125 563.95 L 549.125 551.825 L 573.375 551.825 L 573.375 563.95 Z  M 585.5 491.2 L 597.625 491.2 L 597.625 563.95 L 585.5 563.95 L 585.5 551.825 L 573.375 551.825 L 573.375 539.7 L 585.5 539.7 L 585.5 491.2 Z  M 670.375 503.325 L 621.875 503.325 L 621.875 491.2 L 670.375 491.2 L 670.375 503.325 Z  M 609.75 503.325 L 621.875 503.325 L 621.875 515.45 L 609.75 515.45 L 609.75 503.325 Z  M 621.875 515.45 L 658.25 515.45 L 658.25 527.575 L 621.875 527.575 L 621.875 515.45 Z  M 658.25 527.575 L 670.375 527.575 L 670.375 551.825 L 658.25 551.825 L 658.25 527.575 Z  M 609.75 551.825 L 658.25 551.825 L 658.25 563.95 L 609.75 563.95 L 609.75 551.825 Z  M 743.125 503.325 L 718.875 503.325 L 718.875 551.825 L 706.75 551.825 L 706.75 503.325 L 682.5 503.325 L 682.5 491.2 L 706.75 491.2 L 706.75 466.95 L 718.875 466.95 L 718.875 491.2 L 743.125 491.2 L 743.125 503.325 Z  M 743.125 563.95 L 718.875 563.95 L 718.875 551.825 L 743.125 551.825 L 743.125 563.95 Z  M 803.75 479.075 L 815.875 479.075 L 815.875 515.45 L 803.75 515.45 L 803.75 479.075 Z  M 755.25 466.95 L 803.75 466.95 L 803.75 479.075 L 767.375 479.075 L 767.375 515.45 L 803.75 515.45 L 803.75 539.7 L 791.625 539.7 L 791.625 527.575 L 767.375 527.575 L 767.375 563.95 L 755.25 563.95 L 755.25 466.95 Z  M 803.75 539.7 L 815.875 539.7 L 815.875 563.95 L 803.75 563.95 L 803.75 539.7 Z " fill="rgb(69,40,60)"/></g></svg>