<?xml version="1.0" encoding="UTF-8" standalone="no"?><!-- Generator: Gravit.io --><svg xmlns="http://www.w3.org/2000/svg" xmlns:xlink="http://www.w3.org/1999/xlink" style="isolation:isolate" viewBox="0 0 1200 630" width="1200pt" height="630pt"><defs><clipPath id="_clipPath_xoeoKnwxnLFviQZxL3slW7yf50bPavhe"><rect width="1200" height="630"/></clipPath></defs><g clip-path="url(#_clipPath_xoeoKnwxnLFviQZxL3slW7yf50bPavhe)"><rect width="1200" height="630" style="fill:rgb(217,87,99)"/><g><path d=" M 502.7 79.079 L 502.7 92.979 L 447.1 92.979 L 447.1 79.079 L 502.7 79.079 Z  M 752.9 79.079 L 752.9 92.979 L 697.3 92.979 L 697.3 79.079 L 752.9 79.079 Z  M 447.1 92.979 L 447.1 106.879 L 433.2 106.879 L 433.2 92.979 L 447.1 92.979 Z  M 516.6 92.979 L 516.6 106.879 L 502.7 106.879 L 502.7 92.979 L 516.6 92.979 Z  M 697.3 92.979 L 697.3 106.879 L 683.4 106.879 L 683.4 92.979 L 697.3 92.979 Z  M 766.8 92.979 L 766.8 106.879 L 752.9 106.879 L 752.9 92.979 L 766.8 92.979 Z  M 433.2 106.879 L 433.2 120.779 L 419.3 120.779 L 419.3 106.879 L 433.2 106.879 Z  M 530.5 106.879 L 530.5 120.779 L 516.6 120.779 L 516.6 106.879 L 530.5 106.879 Z  M 683.4 106.879 L 683.4 120.779 L 669.5 120.779 L 669.5 106.879 L 683.4 106.879 Z  M 780.7 106.879 L 780.7 120.779 L 766.8 120.779 L 766.8 106.879 L 780.7 106.879 Z  M 433.2 120.779 L 433.2 134.679 L 419.3 134.679 L 419.3 120.779 L 433.2 120.779 Z  M 544.4 120.779 L 544.4 134.679 L 530.5 134.679 L 530.5 120.779 L 544.4 120.779 Z  M 669.5 120.779 L 669.5 134.679 L 655.6 134.679 L 655.6 120.779 L 669.5 120.779 Z  M 780.7 120.779 L 780.7 134.679 L 766.8 134.679 L 766.8 120.779 L 780.7 120.779 Z  M 433.2 134.679 L 433.2 148.579 L 419.3 148.579 L 419.3 134.679 L 433.2 134.679 Z  M 558.3 134.679 L 558.3 148.579 L 544.4 148.579 L 544.4 134.679 L 558.3 134.679 Z  M 655.6 134.679 L 655.6 148.579 L 641.7 148.579 L 641.7 134.679 L 655.6 134.679 Z  M 780.7 134.679 L 780.7 148.579 L 766.8 148.579 L 766.8 134.679 L 780.7 134.679 Z  M 433.2 148.579 L 433.2 162.479 L 419.3 162.479 L 419.3 148.579 L 433.2 148.579 Z  M 558.3 148.579 L 558.3 162.479 L 544.4 162.479 L 544.4 148.579 L 558.3 148.579 Z  M 655.6 148.579 L 655.6 162.479 L 641.7 162.479 L 641.7 148.579 L 655.6 148.579 Z  M 780.7 148.579 L 780.7 162.479 L 766.8 162.479 L 766.8 148.579 L 780.7 148.579 Z  M 433.2 162.479 L 433.2 176.379 L 419.3 176.379 L 419.3 162.479 L 433.2 162.479 Z  M 655.6 162.479 L 655.6 176.379 L 544.4 176.379 L 544.4 162.479 L 655.6 162.479 Z  M 780.7 162.479 L 780.7 176.379 L 766.8 176.379 L 766.8 162.479 L 780.7 162.479 Z  M 405.4 176.379 L 405.4 190.279 L 391.5 190.279 L 391.5 176.379 L 405.4 176.379 Z  M 447.1 176.379 L 447.1 190.279 L 433.2 190.279 L 433.2 176.379 L 447.1 176.379 Z  M 766.8 176.379 L 766.8 190.279 L 752.9 190.279 L 752.9 176.379 L 766.8 176.379 Z  M 808.5 176.379 L 808.5 190.279 L 794.6 190.279 L 794.6 176.379 L 808.5 176.379 Z  M 419.3 190.279 L 419.3 204.179 L 405.4 204.179 L 405.4 190.279 L 419.3 190.279 Z  M 447.1 190.279 L 447.1 204.179 L 433.2 204.179 L 433.2 190.279 L 447.1 190.279 Z  M 766.8 190.279 L 766.8 204.179 L 752.9 204.179 L 752.9 190.279 L 766.8 190.279 Z  M 794.6 190.279 L 794.6 204.179 L 780.7 204.179 L 780.7 190.279 L 794.6 190.279 Z  M 433.2 204.179 L 433.2 218.079 L 419.3 218.079 L 419.3 204.179 L 433.2 204.179 Z  M 530.5 204.179 L 530.5 218.079 L 488.8 218.079 L 488.8 204.179 L 530.5 204.179 Z  M 711.2 204.179 L 711.2 218.079 L 669.5 218.079 L 669.5 204.179 L 711.2 204.179 Z  M 780.7 204.179 L 780.7 218.079 L 766.8 218.079 L 766.8 204.179 L 780.7 204.179 Z  M 433.2 218.079 L 433.2 231.979 L 391.5 231.979 L 391.5 218.079 L 433.2 218.079 Z  M 544.4 218.079 L 544.4 231.979 L 530.5 231.979 L 530.5 218.079 L 544.4 218.079 Z  M 669.5 218.079 L 669.5 231.979 L 655.6 231.979 L 655.6 218.079 L 669.5 218.079 Z  M 808.5 218.079 L 808.5 231.979 L 766.8 231.979 L 766.8 218.079 L 808.5 218.079 Z  M 433.2 231.979 L 433.2 245.879 L 419.3 245.879 L 419.3 231.979 L 433.2 231.979 Z  M 558.3 231.979 L 558.3 245.879 L 544.4 245.879 L 544.4 231.979 L 558.3 231.979 Z  M 655.6 231.979 L 655.6 245.879 L 641.7 245.879 L 641.7 231.979 L 655.6 231.979 Z  M 780.7 231.979 L 780.7 245.879 L 766.8 245.879 L 766.8 231.979 L 780.7 231.979 Z  M 419.3 245.879 L 419.3 259.779 L 405.4 259.779 L 405.4 245.879 L 419.3 245.879 Z  M 447.1 245.879 L 447.1 259.779 L 433.2 259.779 L 433.2 245.879 L 447.1 245.879 Z  M 766.8 245.879 L 766.8 259.779 L 752.9 259.779 L 752.9 245.879 L 766.8 245.879 Z  M 794.6 245.879 L 794.6 259.779 L 780.7 259.779 L 780.7 245.879 L 794.6 245.879 Z  M 405.4 259.779 L 405.4 273.679 L 391.5 273.679 L 391.5 259.779 L 405.4 259.779 Z  M 461 259.779 L 461 273.679 L 447.1 273.679 L 447.1 259.779 L 461 259.779 Z  M 572.2 259.779 L 572.2 273.679 L 558.3 273.679 L 558.3 259.779 L 572.2 259.779 Z  M 600 259.779 L 600 273.679 L 586.1 273.679 L 586.1 259.779 L 600 259.779 Z  M 641.7 259.779 L 641.7 273.679 L 627.8 273.679 L 627.8 259.779 L 641.7 259.779 Z  M 752.9 259.779 L 752.9 273.679 L 739 273.679 L 739 259.779 L 752.9 259.779 Z  M 780.7 259.779 L 780.7 273.679 L 766.8 273.679 L 766.8 259.779 L 780.7 259.779 Z  M 808.5 259.779 L 808.5 273.679 L 794.6 273.679 L 794.6 259.779 L 808.5 259.779 Z  M 516.6 273.679 L 516.6 287.579 L 461 287.579 L 461 273.679 L 516.6 273.679 Z  M 586.1 273.679 L 586.1 287.579 L 572.2 287.579 L 572.2 273.679 L 586.1 273.679 Z  M 627.8 273.679 L 627.8 287.579 L 613.9 287.579 L 613.9 273.679 L 627.8 273.679 Z  M 752.9 273.679 L 752.9 287.579 L 683.4 287.579 L 683.4 273.679 L 752.9 273.679 Z  M 794.6 273.679 L 794.6 287.579 L 780.7 287.579 L 780.7 273.679 L 794.6 273.679 Z  M 683.4 287.579 L 683.4 301.479 L 516.6 301.479 L 516.6 287.579 L 683.4 287.579 Z  M 711.2 287.579 L 711.2 301.479 L 697.3 301.479 L 697.3 287.579 L 711.2 287.579 Z  M 739 287.579 L 739 301.479 L 725.1 301.479 L 725.1 287.579 L 739 287.579 Z  M 766.8 287.579 L 766.8 301.479 L 752.9 301.479 L 752.9 287.579 L 766.8 287.579 Z  M 794.6 287.579 L 794.6 301.479 L 780.7 301.479 L 780.7 287.579 L 794.6 287.579 Z  M 544.4 301.479 L 544.4 315.379 L 530.5 315.379 L 530.5 301.479 L 544.4 301.479 Z  M 669.5 301.479 L 669.5 315.379 L 655.6 315.379 L 655.6 301.479 L 669.5 301.479 Z  M 697.3 301.479 L 697.3 315.379 L 683.4 315.379 L 683.4 301.479 L 697.3 301.479 Z  M 725.1 301.479 L 725.1 315.379 L 711.2 315.379 L 711.2 301.479 L 725.1 301.479 Z  M 780.7 301.479 L 780.7 315.379 L 766.8 315.379 L 766.8 301.479 L 780.7 301.479 Z  M 544.4 315.379 L 544.4 329.279 L 530.5 329.279 L 530.5 315.379 L 544.4 315.379 Z  M 669.5 315.379 L 669.5 329.279 L 655.6 329.279 L 655.6 315.379 L 669.5 315.379 Z  M 697.3 315.379 L 697.3 329.279 L 683.4 329.279 L 683.4 315.379 L 697.3 315.379 Z  M 725.1 315.379 L 725.1 329.279 L 711.2 329.279 L 711.2 315.379 L 725.1 315.379 Z  M 544.4 329.279 L 544.4 343.179 L 530.5 343.179 L 530.5 329.279 L 544.4 329.279 Z  M 683.4 329.279 L 683.4 343.179 L 655.6 343.179 L 655.6 329.279 L 683.4 329.279 Z  M 725.1 329.279 L 725.1 343.179 L 711.2 343.179 L 711.2 329.279 L 725.1 329.279 Z  M 544.4 343.179 L 544.4 357.079 L 530.5 357.079 L 530.5 343.179 L 544.4 343.179 Z  M 600 343.179 L 600 357.079 L 586.1 357.079 L 586.1 343.179 L 600 343.179 Z  M 627.8 343.179 L 627.8 357.079 L 613.9 357.079 L 613.9 343.179 L 627.8 343.179 Z  M 669.5 343.179 L 669.5 357.079 L 655.6 357.079 L 655.6 343.179 L 669.5 343.179 Z  M 711.2 343.179 L 711.2 357.079 L 697.3 357.079 L 697.3 343.179 L 711.2 343.179 Z  M 544.4 357.079 L 544.4 370.979 L 516.6 370.979 L 516.6 357.079 L 544.4 357.079 Z  M 586.1 357.079 L 586.1 370.979 L 572.2 370.979 L 572.2 357.079 L 586.1 357.079 Z  M 613.9 357.079 L 613.9 370.979 L 600 370.979 L 600 357.079 L 613.9 357.079 Z  M 697.3 357.079 L 697.3 370.979 L 655.6 370.979 L 655.6 357.079 L 697.3 357.079 Z  M 516.6 370.979 L 516.6 384.879 L 502.7 384.879 L 502.7 370.979 L 516.6 370.979 Z  M 544.4 370.979 L 544.4 384.879 L 530.5 384.879 L 530.5 370.979 L 544.4 370.979 Z  M 600 370.979 L 600 384.879 L 572.2 384.879 L 572.2 370.979 L 600 370.979 Z  M 627.8 370.979 L 627.8 384.879 L 613.9 384.879 L 613.9 370.979 L 627.8 370.979 Z  M 669.5 370.979 L 669.5 384.879 L 655.6 384.879 L 655.6 370.979 L 669.5 370.979 Z  M 697.3 370.979 L 697.3 384.879 L 683.4 384.879 L 683.4 370.979 L 697.3 370.979 Z  M 516.6 384.879 L 516.6 398.779 L 502.7 398.779 L 502.7 384.879 L 516.6 384.879 Z  M 544.4 384.879 L 544.4 398.779 L 530.5 398.779 L 530.5 384.879 L 544.4 384.879 Z  M 586.1 384.879 L 586.1 398.779 L 572.2 398.779 L 572.2 384.879 L 586.1 384.879 Z  M 613.9 384.879 L 613.9 398.779 L 600 398.779 L 600 384.879 L 613.9 384.879 Z  M 669.5 384.879 L 669.5 398.779 L 655.6 398.779 L 655.6 384.879 L 669.5 384.879 Z  M 697.3 384.879 L 697.3 398.779 L 683.4 398.779 L 683.4 384.879 L 697.3 384.879 Z  M 516.6 398.779 L 516.6 412.679 L 502.7 412.679 L 502.7 398.779 L 516.6 398.779 Z  M 544.4 398.779 L 544.4 412.679 L 530.5 412.679 L 530.5 398.779 L 544.4 398.779 Z  M 613.9 398.779 L 613.9 412.679 L 586.1 412.679 L 586.1 398.779 L 613.9 398.779 Z  M 669.5 398.779 L 669.5 412.679 L 655.6 412.679 L 655.6 398.779 L 669.5 398.779 Z  M 697.3 398.779 L 697.3 412.679 L 683.4 412.679 L 683.4 398.779 L 697.3 398.779 Z  M 558.3 412.679 L 558.3 426.579 L 502.7 426.579 L 502.7 412.679 L 558.3 412.679 Z  M 613.9 412.679 L 613.9 426.579 L 586.1 426.579 L 586.1 412.679 L 613.9 412.679 Z  M 697.3 412.679 L 697.3 426.579 L 641.7 426.579 L 641.7 412.679 L 697.3 412.679 Z  M 586.1 426.579 L 586.1 440.479 L 558.3 440.479 L 558.3 426.579 L 586.1 426.579 Z  M 641.7 426.579 L 641.7 440.479 L 613.9 440.479 L 613.9 426.579 L 641.7 426.579 Z " fill-rule="evenodd" fill="rgb(69,40,60)"/><path d=" M 502.7 92.979 L 502.7 106.879 L 447.1 106.879 L 447.1 92.979 L 502.7 92.979 Z  M 752.9 92.979 L 752.9 106.879 L 697.3 106.879 L 697.3 92.979 L 752.9 92.979 Z  M 516.6 106.879 L 516.6 120.779 L 433.2 120.779 L 433.2 106.879 L 516.6 106.879 Z  M 766.8 106.879 L 766.8 120.779 L 683.4 120.779 L 683.4 106.879 L 766.8 106.879 Z  M 461 120.779 L 461 134.679 L 433.2 134.679 L 433.2 120.779 L 461 120.779 Z  M 530.5 120.779 L 530.5 134.679 L 488.8 134.679 L 488.8 120.779 L 530.5 120.779 Z  M 711.2 120.779 L 711.2 134.679 L 669.5 134.679 L 669.5 120.779 L 711.2 120.779 Z  M 766.8 120.779 L 766.8 134.679 L 739 134.679 L 739 120.779 L 766.8 120.779 Z  M 447.1 134.679 L 447.1 148.579 L 433.2 148.579 L 433.2 134.679 L 447.1 134.679 Z  M 474.9 134.679 L 474.9 148.579 L 461 148.579 L 461 134.679 L 474.9 134.679 Z  M 544.4 134.679 L 544.4 148.579 L 502.7 148.579 L 502.7 134.679 L 544.4 134.679 Z  M 697.3 134.679 L 697.3 148.579 L 655.6 148.579 L 655.6 134.679 L 697.3 134.679 Z  M 739 134.679 L 739 148.579 L 725.1 148.579 L 725.1 134.679 L 739 134.679 Z  M 766.8 134.679 L 766.8 148.579 L 752.9 148.579 L 752.9 134.679 L 766.8 134.679 Z  M 461 148.579 L 461 162.479 L 433.2 162.479 L 433.2 148.579 L 461 148.579 Z  M 488.8 148.579 L 488.8 162.479 L 474.9 162.479 L 474.9 148.579 L 488.8 148.579 Z  M 544.4 148.579 L 544.4 162.479 L 516.6 162.479 L 516.6 148.579 L 544.4 148.579 Z  M 683.4 148.579 L 683.4 162.479 L 655.6 162.479 L 655.6 148.579 L 683.4 148.579 Z  M 725.1 148.579 L 725.1 162.479 L 711.2 162.479 L 711.2 148.579 L 725.1 148.579 Z  M 766.8 148.579 L 766.8 162.479 L 739 162.479 L 739 148.579 L 766.8 148.579 Z  M 474.9 162.479 L 474.9 176.379 L 433.2 176.379 L 433.2 162.479 L 474.9 162.479 Z  M 502.7 162.479 L 502.7 176.379 L 488.8 176.379 L 488.8 162.479 L 502.7 162.479 Z  M 544.4 162.479 L 544.4 176.379 L 516.6 176.379 L 516.6 162.479 L 544.4 162.479 Z  M 683.4 162.479 L 683.4 176.379 L 655.6 176.379 L 655.6 162.479 L 683.4 162.479 Z  M 711.2 162.479 L 711.2 176.379 L 697.3 176.379 L 697.3 162.479 L 711.2 162.479 Z  M 766.8 162.479 L 766.8 176.379 L 725.1 176.379 L 725.1 162.479 L 766.8 162.479 Z  M 752.9 176.379 L 752.9 190.279 L 447.1 190.279 L 447.1 176.379 L 752.9 176.379 Z  M 752.9 190.279 L 752.9 204.179 L 447.1 204.179 L 447.1 190.279 L 752.9 190.279 Z  M 488.8 204.179 L 488.8 218.079 L 447.1 218.079 L 447.1 204.179 L 488.8 204.179 Z  M 669.5 204.179 L 669.5 218.079 L 530.5 218.079 L 530.5 204.179 L 669.5 204.179 Z  M 752.9 204.179 L 752.9 218.079 L 711.2 218.079 L 711.2 204.179 L 752.9 204.179 Z  M 530.5 218.079 L 530.5 231.979 L 447.1 231.979 L 447.1 218.079 L 530.5 218.079 Z  M 655.6 218.079 L 655.6 231.979 L 544.4 231.979 L 544.4 218.079 L 655.6 218.079 Z  M 752.9 218.079 L 752.9 231.979 L 669.5 231.979 L 669.5 218.079 L 752.9 218.079 Z  M 544.4 231.979 L 544.4 245.879 L 447.1 245.879 L 447.1 231.979 L 544.4 231.979 Z  M 641.7 231.979 L 641.7 245.879 L 558.3 245.879 L 558.3 231.979 L 641.7 231.979 Z  M 752.9 231.979 L 752.9 245.879 L 655.6 245.879 L 655.6 231.979 L 752.9 231.979 Z  M 586.1 245.879 L 586.1 259.779 L 461 259.779 L 461 245.879 L 586.1 245.879 Z  M 739 245.879 L 739 259.779 L 613.9 259.779 L 613.9 245.879 L 739 245.879 Z  M 558.3 259.779 L 558.3 273.679 L 474.9 273.679 L 474.9 259.779 L 558.3 259.779 Z  M 586.1 259.779 L 586.1 273.679 L 572.2 273.679 L 572.2 259.779 L 586.1 259.779 Z  M 627.8 259.779 L 627.8 273.679 L 613.9 273.679 L 613.9 259.779 L 627.8 259.779 Z  M 725.1 259.779 L 725.1 273.679 L 641.7 273.679 L 641.7 259.779 L 725.1 259.779 Z  M 766.8 259.779 L 766.8 273.679 L 752.9 273.679 L 752.9 259.779 L 766.8 259.779 Z  M 572.2 273.679 L 572.2 287.579 L 516.6 287.579 L 516.6 273.679 L 572.2 273.679 Z  M 613.9 273.679 L 613.9 287.579 L 586.1 287.579 L 586.1 273.679 L 613.9 273.679 Z  M 669.5 273.679 L 669.5 287.579 L 627.8 287.579 L 627.8 273.679 L 669.5 273.679 Z  M 780.7 273.679 L 780.7 287.579 L 752.9 287.579 L 752.9 273.679 L 780.7 273.679 Z  M 780.7 287.579 L 780.7 301.479 L 766.8 301.479 L 766.8 287.579 L 780.7 287.579 Z  M 655.6 301.479 L 655.6 315.379 L 641.7 315.379 L 641.7 301.479 L 655.6 301.479 Z  M 711.2 301.479 L 711.2 315.379 L 697.3 315.379 L 697.3 301.479 L 711.2 301.479 Z  M 655.6 315.379 L 655.6 329.279 L 572.2 329.279 L 572.2 315.379 L 655.6 315.379 Z  M 711.2 315.379 L 711.2 329.279 L 697.3 329.279 L 697.3 315.379 L 711.2 315.379 Z  M 655.6 329.279 L 655.6 343.179 L 558.3 343.179 L 558.3 329.279 L 655.6 329.279 Z  M 711.2 329.279 L 711.2 343.179 L 697.3 343.179 L 697.3 329.279 L 711.2 329.279 Z  M 586.1 343.179 L 586.1 357.079 L 558.3 357.079 L 558.3 343.179 L 586.1 343.179 Z  M 613.9 343.179 L 613.9 357.079 L 600 357.079 L 600 343.179 L 613.9 343.179 Z  M 655.6 343.179 L 655.6 357.079 L 627.8 357.079 L 627.8 343.179 L 655.6 343.179 Z  M 572.2 357.079 L 572.2 370.979 L 558.3 370.979 L 558.3 357.079 L 572.2 357.079 Z  M 600 357.079 L 600 370.979 L 586.1 370.979 L 586.1 357.079 L 600 357.079 Z  M 655.6 357.079 L 655.6 370.979 L 613.9 370.979 L 613.9 357.079 L 655.6 357.079 Z  M 530.5 370.979 L 530.5 384.879 L 516.6 384.879 L 516.6 370.979 L 530.5 370.979 Z  M 572.2 370.979 L 572.2 384.879 L 558.3 384.879 L 558.3 370.979 L 572.2 370.979 Z  M 613.9 370.979 L 613.9 384.879 L 600 384.879 L 600 370.979 L 613.9 370.979 Z  M 655.6 370.979 L 655.6 384.879 L 627.8 384.879 L 627.8 370.979 L 655.6 370.979 Z  M 683.4 370.979 L 683.4 384.879 L 669.5 384.879 L 669.5 370.979 L 683.4 370.979 Z  M 530.5 384.879 L 530.5 398.779 L 516.6 398.779 L 516.6 384.879 L 530.5 384.879 Z  M 572.2 384.879 L 572.2 398.779 L 558.3 398.779 L 558.3 384.879 L 572.2 384.879 Z  M 655.6 384.879 L 655.6 398.779 L 627.8 398.779 L 627.8 384.879 L 655.6 384.879 Z  M 530.5 398.779 L 530.5 412.679 L 516.6 412.679 L 516.6 398.779 L 530.5 398.779 Z  M 586.1 398.779 L 586.1 412.679 L 558.3 412.679 L 558.3 398.779 L 586.1 398.779 Z  M 655.6 398.779 L 655.6 412.679 L 627.8 412.679 L 627.8 398.779 L 655.6 398.779 Z  M 586.1 412.679 L 586.1 426.579 L 558.3 426.579 L 558.3 412.679 L 586.1 412.679 Z  M 641.7 412.679 L 641.7 426.579 L 627.8 426.579 L 627.8 412.679 L 641.7 412.679 Z " fill-rule="evenodd" fill="rgb(95,205,228)"/><path d=" M 488.8 120.779 L 488.8 134.679 L 461 134.679 L 461 120.779 L 488.8 120.779 Z  M 739 120.779 L 739 134.679 L 711.2 134.679 L 711.2 120.779 L 739 120.779 Z  M 461 134.679 L 461 148.579 L 447.1 148.579 L 447.1 134.679 L 461 134.679 Z  M 502.7 134.679 L 502.7 148.579 L 474.9 148.579 L 474.9 134.679 L 502.7 134.679 Z  M 725.1 134.679 L 725.1 148.579 L 697.3 148.579 L 697.3 134.679 L 725.1 134.679 Z  M 752.9 134.679 L 752.9 148.579 L 739 148.579 L 739 134.679 L 752.9 134.679 Z  M 474.9 148.579 L 474.9 162.479 L 461 162.479 L 461 148.579 L 474.9 148.579 Z  M 516.6 148.579 L 516.6 162.479 L 488.8 162.479 L 488.8 148.579 L 516.6 148.579 Z  M 711.2 148.579 L 711.2 162.479 L 683.4 162.479 L 683.4 148.579 L 711.2 148.579 Z  M 739 148.579 L 739 162.479 L 725.1 162.479 L 725.1 148.579 L 739 148.579 Z  M 488.8 162.479 L 488.8 176.379 L 474.9 176.379 L 474.9 162.479 L 488.8 162.479 Z  M 516.6 162.479 L 516.6 176.379 L 502.7 176.379 L 502.7 162.479 L 516.6 162.479 Z  M 697.3 162.479 L 697.3 176.379 L 683.4 176.379 L 683.4 162.479 L 697.3 162.479 Z  M 725.1 162.479 L 725.1 176.379 L 711.2 176.379 L 711.2 162.479 L 725.1 162.479 Z  M 447.1 204.179 L 447.1 218.079 L 433.2 218.079 L 433.2 204.179 L 447.1 204.179 Z  M 766.8 204.179 L 766.8 218.079 L 752.9 218.079 L 752.9 204.179 L 766.8 204.179 Z  M 447.1 218.079 L 447.1 231.979 L 433.2 231.979 L 433.2 218.079 L 447.1 218.079 Z  M 766.8 218.079 L 766.8 231.979 L 752.9 231.979 L 752.9 218.079 L 766.8 218.079 Z  M 447.1 231.979 L 447.1 245.879 L 433.2 245.879 L 433.2 231.979 L 447.1 231.979 Z  M 766.8 231.979 L 766.8 245.879 L 752.9 245.879 L 752.9 231.979 L 766.8 231.979 Z  M 461 245.879 L 461 259.779 L 447.1 259.779 L 447.1 245.879 L 461 245.879 Z  M 613.9 245.879 L 613.9 259.779 L 586.1 259.779 L 586.1 245.879 L 613.9 245.879 Z  M 752.9 245.879 L 752.9 259.779 L 739 259.779 L 739 245.879 L 752.9 245.879 Z  M 474.9 259.779 L 474.9 273.679 L 461 273.679 L 461 259.779 L 474.9 259.779 Z  M 613.9 259.779 L 613.9 273.679 L 600 273.679 L 600 259.779 L 613.9 259.779 Z  M 739 259.779 L 739 273.679 L 725.1 273.679 L 725.1 259.779 L 739 259.779 Z  M 683.4 273.679 L 683.4 287.579 L 669.5 287.579 L 669.5 273.679 L 683.4 273.679 Z  M 725.1 287.579 L 725.1 301.479 L 711.2 301.479 L 711.2 287.579 L 725.1 287.579 Z  M 641.7 301.479 L 641.7 315.379 L 544.4 315.379 L 544.4 301.479 L 641.7 301.479 Z  M 572.2 315.379 L 572.2 329.279 L 544.4 329.279 L 544.4 315.379 L 572.2 315.379 Z  M 558.3 329.279 L 558.3 343.179 L 544.4 343.179 L 544.4 329.279 L 558.3 329.279 Z  M 697.3 329.279 L 697.3 343.179 L 683.4 343.179 L 683.4 329.279 L 697.3 329.279 Z  M 558.3 343.179 L 558.3 357.079 L 544.4 357.079 L 544.4 343.179 L 558.3 343.179 Z  M 697.3 343.179 L 697.3 357.079 L 669.5 357.079 L 669.5 343.179 L 697.3 343.179 Z  M 558.3 357.079 L 558.3 370.979 L 544.4 370.979 L 544.4 357.079 L 558.3 357.079 Z  M 558.3 370.979 L 558.3 384.879 L 544.4 384.879 L 544.4 370.979 L 558.3 370.979 Z  M 558.3 384.879 L 558.3 398.779 L 544.4 398.779 L 544.4 384.879 L 558.3 384.879 Z  M 600 384.879 L 600 398.779 L 586.1 398.779 L 586.1 384.879 L 600 384.879 Z  M 627.8 384.879 L 627.8 398.779 L 613.9 398.779 L 613.9 384.879 L 627.8 384.879 Z  M 683.4 384.879 L 683.4 398.779 L 669.5 398.779 L 669.5 384.879 L 683.4 384.879 Z  M 558.3 398.779 L 558.3 412.679 L 544.4 412.679 L 544.4 398.779 L 558.3 398.779 Z  M 627.8 398.779 L 627.8 412.679 L 613.9 412.679 L 613.9 398.779 L 627.8 398.779 Z  M 683.4 398.779 L 683.4 412.679 L 669.5 412.679 L 669.5 398.779 L 683.4 398.779 Z  M 627.8 412.679 L 627.8 426.579 L 613.9 426.579 L 613.9 412.679 L 627.8 412.679 Z " fill-rule="evenodd" fill="rgb(48,96,130)"/></g><path d=" M 438.25 476.979 L 447.493 476.979 L 447.493 504.707 L 438.25 504.707 L 438.25 476.979 Z  M 475.221 476.979 L 484.464 476.979 L 484.464 504.707 L 475.221 504.707 L 475.221 476.979 Z  M 447.493 504.707 L 456.736 504.707 L 456.736 532.436 L 447.493 532.436 L 447.493 504.707 Z  M 465.979 504.707 L 475.221 504.707 L 475.221 532.436 L 465.979 532.436 L 465.979 504.707 Z  M 456.736 532.436 L 465.979 532.436 L 465.979 550.921 L 456.736 550.921 L 456.736 532.436 Z  M 493.707 504.707 L 502.95 504.707 L 502.95 541.679 L 493.707 541.679 L 493.707 504.707 Z  M 539.921 550.921 L 502.95 550.921 L 502.95 541.679 L 530.679 541.679 L 530.679 504.707 L 502.95 504.707 L 502.95 495.464 L 530.679 495.464 L 530.679 476.979 L 539.921 476.979 L 539.921 550.921 Z  M 549.164 495.464 L 558.407 495.464 L 558.407 541.679 L 549.164 541.679 L 549.164 495.464 Z  M 576.893 550.921 L 558.407 550.921 L 558.407 541.679 L 576.893 541.679 L 576.893 550.921 Z  M 586.136 495.464 L 595.379 495.464 L 595.379 550.921 L 586.136 550.921 L 586.136 541.679 L 576.893 541.679 L 576.893 532.436 L 586.136 532.436 L 586.136 495.464 Z  M 650.836 504.707 L 613.864 504.707 L 613.864 495.464 L 650.836 495.464 L 650.836 504.707 Z  M 604.621 504.707 L 613.864 504.707 L 613.864 513.95 L 604.621 513.95 L 604.621 504.707 Z  M 613.864 513.95 L 641.593 513.95 L 641.593 523.193 L 613.864 523.193 L 613.864 513.95 Z  M 641.593 523.193 L 650.836 523.193 L 650.836 541.679 L 641.593 541.679 L 641.593 523.193 Z  M 604.621 541.679 L 641.593 541.679 L 641.593 550.921 L 604.621 550.921 L 604.621 541.679 Z  M 706.293 504.707 L 687.807 504.707 L 687.807 541.679 L 678.564 541.679 L 678.564 504.707 L 660.079 504.707 L 660.079 495.464 L 678.564 495.464 L 678.564 476.979 L 687.807 476.979 L 687.807 495.464 L 706.293 495.464 L 706.293 504.707 Z  M 706.293 550.921 L 687.807 550.921 L 687.807 541.679 L 706.293 541.679 L 706.293 550.921 Z  M 752.507 486.221 L 761.75 486.221 L 761.75 513.95 L 752.507 513.95 L 752.507 486.221 Z  M 715.536 476.979 L 752.507 476.979 L 752.507 486.221 L 724.779 486.221 L 724.779 513.95 L 752.507 513.95 L 752.507 532.436 L 743.264 532.436 L 743.264 523.193 L 724.779 523.193 L 724.779 550.921 L 715.536 550.921 L 715.536 476.979 Z  M 752.507 532.436 L 761.75 532.436 L 761.75 550.921 L 752.507 550.921 L 752.507 532.436 Z " fill="rgb(69,40,60)"/></g></svg>