<svg xmlns="http://www.w3.org/2000/svg" xmlns:xlink="http://www.w3.org/1999/xlink" width="72" height="12"><path fill="black" d="M0 2L1 2L1 5L0 5ZM4 2L5 2L5 5L4 5ZM1 5L2 5L2 8L1 8ZM3 5L4 5L4 8L3 8ZM2 8L3 8L3 10L2 10ZM6 5L7 5L7 9L6 9ZM11 10L7 10L7 9L10 9L10 5L7 5L7 4L10 4L10 2L11 2ZM12 4L13 4L13 9L12 9ZM15 10L13 10L13 9L15 9ZM16 4L17 4L17 10L16 10L16 9L15 9L15 8L16 8ZM23 5L19 5L19 4L23 4ZM18 5L19 5L19 6L18 6ZM19 6L22 6L22 7L19 7ZM22 7L23 7L23 9L22 9ZM18 9L22 9L22 10L18 10ZM29 5L27 5L27 9L26 9L26 5L24 5L24 4L26 4L26 2L27 2L27 4L29 4ZM29 10L27 10L27 9L29 9ZM34 3L35 3L35 6L34 6ZM30 2L34 2L34 3L31 3L31 6L34 6L34 8L33 8L33 7L31 7L31 10L30 10ZM34 8L35 8L35 10L34 10Z"/></svg>
